<?xml version="1.0" encoding="UTF-8"?>
<svg width="8px" height="8px" viewBox="0 0 8 8" version="1.1" xmlns="http://www.w3.org/2000/svg" xmlns:xlink="http://www.w3.org/1999/xlink">
    <title>退出全屏</title>
    <g id="页面-1" stroke="none" stroke-width="1" fill="none" fill-rule="evenodd">
        <g id="qr" transform="translate(-1408.000000, -193.000000)" fill="#4D7DFE">
            <g id="退出全屏" transform="translate(1408.000000, 193.000000)">
                <rect id="矩形" x="0" y="2" width="3" height="1" rx="0.5"></rect>
                <rect id="矩形备份-2" transform="translate(2.500000, 1.500000) rotate(90.000000) translate(-2.500000, -1.500000) " x="1" y="1" width="3" height="1" rx="0.5"></rect>
                <rect id="矩形" x="0" y="5" width="3" height="1" rx="0.5"></rect>
                <rect id="矩形备份-2" transform="translate(2.500000, 6.500000) rotate(90.000000) translate(-2.500000, -6.500000) " x="1" y="6" width="3" height="1" rx="0.5"></rect>
                <rect id="矩形" x="5" y="2" width="3" height="1" rx="0.5"></rect>
                <rect id="矩形备份-2" transform="translate(5.500000, 1.500000) rotate(90.000000) translate(-5.500000, -1.500000) " x="4" y="1" width="3" height="1" rx="0.5"></rect>
                <rect id="矩形" x="5" y="5" width="3" height="1" rx="0.5"></rect>
                <rect id="矩形备份-2" transform="translate(5.500000, 6.500000) rotate(90.000000) translate(-5.500000, -6.500000) " x="4" y="6" width="3" height="1" rx="0.5"></rect>
            </g>
        </g>
    </g>
</svg>